<?xml version="1.0" encoding="UTF-8" standalone="no"?>
<!DOCTYPE svg PUBLIC "-//W3C//DTD SVG 1.1//EN"
 "http://www.w3.org/Graphics/SVG/1.1/DTD/svg11.dtd">
<!-- Generated by graphviz version 2.43.0 (0)
 -->
<!-- Title: %3 Pages: 1 -->
<svg width="816pt" height="262pt"
 viewBox="0.00 0.00 815.53 262.00" xmlns="http://www.w3.org/2000/svg" xmlns:xlink="http://www.w3.org/1999/xlink">
<g id="graph0" class="graph" transform="scale(1 1) rotate(0) translate(4 258)">
<title>%3</title>
<polygon fill="white" stroke="transparent" points="-4,4 -4,-258 811.53,-258 811.53,4 -4,4"/>
<!-- Zeek Braverman -->
<g id="node1" class="node">
<title>Zeek Braverman</title>
<g id="a_node1"><a xlink:title="Zeek Braverman">
<path fill="none" stroke="black" d="M305.82,-254C305.82,-254 253.99,-254 253.99,-254 247.99,-254 241.99,-248 241.99,-242 241.99,-242 241.99,-230 241.99,-230 241.99,-224 247.99,-218 253.99,-218 253.99,-218 305.82,-218 305.82,-218 311.82,-218 317.82,-224 317.82,-230 317.82,-230 317.82,-242 317.82,-242 317.82,-248 311.82,-254 305.82,-254"/>
<text text-anchor="middle" x="279.9" y="-233" font-family="Helvetica,sans-Serif" font-size="10.00">Zeek Braverman</text>
</a>
</g>
</g>
<!-- Zeek Braverman_Camille Braverman -->
<g id="node2" class="node">
<title>Zeek Braverman_Camille Braverman</title>
</g>
<!-- Zeek Braverman&#45;&#45;Zeek Braverman_Camille Braverman -->
<g id="edge1" class="edge">
<title>Zeek Braverman&#45;&#45;Zeek Braverman_Camille Braverman</title>
<path fill="none" stroke="black" stroke-width="1.5" d="M317.97,-236C323.76,-236 329.55,-236 335.34,-236"/>
</g>
<!-- Camille Braverman -->
<g id="node3" class="node">
<title>Camille Braverman</title>
<g id="a_node3"><a xlink:title="Camille Braverman">
<path fill="none" stroke="black" d="M417.81,-254C417.81,-254 366,-254 366,-254 360,-254 354,-248 354,-242 354,-242 354,-230 354,-230 354,-224 360,-218 366,-218 366,-218 417.81,-218 417.81,-218 423.81,-218 429.81,-224 429.81,-230 429.81,-230 429.81,-242 429.81,-242 429.81,-248 423.81,-254 417.81,-254"/>
<text text-anchor="middle" x="391.9" y="-233" font-family="Helvetica,sans-Serif" font-size="10.00">Camille Braverm</text>
</a>
</g>
</g>
<!-- Zeek Braverman_Camille Braverman&#45;&#45;Camille Braverman -->
<g id="edge2" class="edge">
<title>Zeek Braverman_Camille Braverman&#45;&#45;Camille Braverman</title>
<path fill="none" stroke="black" stroke-width="1.5" d="M336.78,-236C342.38,-236 347.98,-236 353.57,-236"/>
</g>
<!-- Zeek Braverman_Camille Braverman_sibs -->
<g id="node4" class="node">
<title>Zeek Braverman_Camille Braverman_sibs</title>
</g>
<!-- Zeek Braverman_Camille Braverman&#45;&#45;Zeek Braverman_Camille Braverman_sibs -->
<g id="edge3" class="edge">
<title>Zeek Braverman_Camille Braverman&#45;&#45;Zeek Braverman_Camille Braverman_sibs</title>
<path fill="none" stroke="black" d="M335.9,-234.85C335.9,-231.84 335.9,-185.06 335.9,-182.14"/>
</g>
<!-- Adam Braverman -->
<g id="node5" class="node">
<title>Adam Braverman</title>
<g id="a_node5"><a xlink:title="Adam Braverman">
<path fill="none" stroke="black" d="M67.71,-145C67.71,-145 12.1,-145 12.1,-145 6.1,-145 0.1,-139 0.1,-133 0.1,-133 0.1,-121 0.1,-121 0.1,-115 6.1,-109 12.1,-109 12.1,-109 67.71,-109 67.71,-109 73.71,-109 79.71,-115 79.71,-121 79.71,-121 79.71,-133 79.71,-133 79.71,-139 73.71,-145 67.71,-145"/>
<text text-anchor="middle" x="39.9" y="-124" font-family="Helvetica,sans-Serif" font-size="10.00">Adam Braverman</text>
</a>
</g>
</g>
<!-- Zeek Braverman_Camille Braverman_sibs&#45;&#45;Adam Braverman -->
<g id="edge4" class="edge">
<title>Zeek Braverman_Camille Braverman_sibs&#45;&#45;Adam Braverman</title>
<path fill="none" stroke="black" d="M335.8,-180.99C331.54,-180.71 194.34,-171.3 87.9,-145 86.82,-144.73 85.73,-144.45 84.64,-144.16"/>
<polygon fill="black" stroke="black" points="85.08,-142.46 79.8,-142.79 84.13,-145.83 85.08,-142.46"/>
</g>
<!-- Sarah Braverman -->
<g id="node6" class="node">
<title>Sarah Braverman</title>
<g id="a_node6"><a xlink:title="Sarah Braverman">
<path fill="none" stroke="black" d="M270.27,-145C270.27,-145 213.53,-145 213.53,-145 207.53,-145 201.53,-139 201.53,-133 201.53,-133 201.53,-121 201.53,-121 201.53,-115 207.53,-109 213.53,-109 213.53,-109 270.27,-109 270.27,-109 276.27,-109 282.27,-115 282.27,-121 282.27,-121 282.27,-133 282.27,-133 282.27,-139 276.27,-145 270.27,-145"/>
<text text-anchor="middle" x="241.9" y="-124" font-family="Helvetica,sans-Serif" font-size="10.00">Sarah Braverman</text>
</a>
</g>
</g>
<!-- Zeek Braverman_Camille Braverman_sibs&#45;&#45;Sarah Braverman -->
<g id="edge5" class="edge">
<title>Zeek Braverman_Camille Braverman_sibs&#45;&#45;Sarah Braverman</title>
<path fill="none" stroke="black" d="M335.84,-180.96C334.18,-180.03 302.68,-162.27 276.61,-147.57"/>
<polygon fill="black" stroke="black" points="277.36,-145.98 272.14,-145.05 275.64,-149.03 277.36,-145.98"/>
</g>
<!-- Julia Braverman -->
<g id="node7" class="node">
<title>Julia Braverman</title>
<g id="a_node7"><a xlink:title="Julia Braverman">
<path fill="none" stroke="black" d="M454.16,-145C454.16,-145 403.65,-145 403.65,-145 397.65,-145 391.65,-139 391.65,-133 391.65,-133 391.65,-121 391.65,-121 391.65,-115 397.65,-109 403.65,-109 403.65,-109 454.16,-109 454.16,-109 460.16,-109 466.16,-115 466.16,-121 466.16,-121 466.16,-133 466.16,-133 466.16,-139 460.16,-145 454.16,-145"/>
<text text-anchor="middle" x="428.9" y="-124" font-family="Helvetica,sans-Serif" font-size="10.00">Julia Braverman</text>
</a>
</g>
</g>
<!-- Zeek Braverman_Camille Braverman_sibs&#45;&#45;Julia Braverman -->
<g id="edge6" class="edge">
<title>Zeek Braverman_Camille Braverman_sibs&#45;&#45;Julia Braverman</title>
<path fill="none" stroke="black" d="M335.97,-180.96C337.61,-180.03 368.78,-162.27 394.57,-147.57"/>
<polygon fill="black" stroke="black" points="395.51,-149.05 398.99,-145.05 393.78,-146.01 395.51,-149.05"/>
</g>
<!-- Crosby Braverman -->
<g id="node8" class="node">
<title>Crosby Braverman</title>
<g id="a_node8"><a xlink:title="Crosby Braverman">
<path fill="none" stroke="black" d="M551.7,-145C551.7,-145 496.11,-145 496.11,-145 490.11,-145 484.11,-139 484.11,-133 484.11,-133 484.11,-121 484.11,-121 484.11,-115 490.11,-109 496.11,-109 496.11,-109 551.7,-109 551.7,-109 557.7,-109 563.7,-115 563.7,-121 563.7,-121 563.7,-133 563.7,-133 563.7,-139 557.7,-145 551.7,-145"/>
<text text-anchor="middle" x="523.9" y="-124" font-family="Helvetica,sans-Serif" font-size="10.00">Crosby Braverma</text>
</a>
</g>
</g>
<!-- Zeek Braverman_Camille Braverman_sibs&#45;&#45;Crosby Braverman -->
<g id="edge7" class="edge">
<title>Zeek Braverman_Camille Braverman_sibs&#45;&#45;Crosby Braverman</title>
<path fill="none" stroke="black" d="M335.96,-180.99C338.33,-180.45 414.77,-163.18 474.9,-145 476.28,-144.58 477.67,-144.15 479.07,-143.71"/>
<polygon fill="black" stroke="black" points="479.65,-145.37 483.88,-142.18 478.58,-142.03 479.65,-145.37"/>
</g>
<!-- Adam Braverman_Kristina Braverman -->
<g id="node9" class="node">
<title>Adam Braverman_Kristina Braverman</title>
</g>
<!-- Adam Braverman&#45;&#45;Adam Braverman_Kristina Braverman -->
<g id="edge8" class="edge">
<title>Adam Braverman&#45;&#45;Adam Braverman_Kristina Braverman</title>
<path fill="none" stroke="black" stroke-width="1.5" d="M79.78,-127C85.63,-127 91.48,-127 97.34,-127"/>
</g>
<!-- Sarah Braverman_Seth Holt -->
<g id="node14" class="node">
<title>Sarah Braverman_Seth Holt</title>
</g>
<!-- Sarah Braverman&#45;&#45;Sarah Braverman_Seth Holt -->
<g id="edge13" class="edge">
<title>Sarah Braverman&#45;&#45;Sarah Braverman_Seth Holt</title>
<path fill="none" stroke="red" stroke-width="1.5" d="M282.47,-127C288.42,-127 294.37,-127 300.33,-127"/>
</g>
<!-- Crosby Braverman_Jasmine Trussell -->
<g id="node24" class="node">
<title>Crosby Braverman_Jasmine Trussell</title>
</g>
<!-- Crosby Braverman&#45;&#45;Crosby Braverman_Jasmine Trussell -->
<g id="edge22" class="edge">
<title>Crosby Braverman&#45;&#45;Crosby Braverman_Jasmine Trussell</title>
<path fill="none" stroke="cyan" stroke-width="1.5" d="M563.78,-127C569.63,-127 575.48,-127 581.34,-127"/>
</g>
<!-- Kristina Braverman -->
<g id="node10" class="node">
<title>Kristina Braverman</title>
<g id="a_node10"><a xlink:title="Kristina Braverman">
<path fill="none" stroke="black" d="M171.48,-145C171.48,-145 128.33,-145 128.33,-145 122.33,-145 116.33,-139 116.33,-133 116.33,-133 116.33,-121 116.33,-121 116.33,-115 122.33,-109 128.33,-109 128.33,-109 171.48,-109 171.48,-109 177.48,-109 183.48,-115 183.48,-121 183.48,-121 183.48,-133 183.48,-133 183.48,-139 177.48,-145 171.48,-145"/>
<text text-anchor="middle" x="149.9" y="-124" font-family="Helvetica,sans-Serif" font-size="10.00">Kristina Braver</text>
</a>
</g>
</g>
<!-- Adam Braverman_Kristina Braverman&#45;&#45;Kristina Braverman -->
<g id="edge9" class="edge">
<title>Adam Braverman_Kristina Braverman&#45;&#45;Kristina Braverman</title>
<path fill="none" stroke="black" stroke-width="1.5" d="M98.72,-127C104.58,-127 110.45,-127 116.31,-127"/>
</g>
<!-- Adam Braverman_Kristina Braverman_sibs -->
<g id="node11" class="node">
<title>Adam Braverman_Kristina Braverman_sibs</title>
</g>
<!-- Adam Braverman_Kristina Braverman&#45;&#45;Adam Braverman_Kristina Braverman_sibs -->
<g id="edge10" class="edge">
<title>Adam Braverman_Kristina Braverman&#45;&#45;Adam Braverman_Kristina Braverman_sibs</title>
<path fill="none" stroke="black" d="M97.9,-125.85C97.9,-122.84 97.9,-76.06 97.9,-73.14"/>
</g>
<!-- Haddie Braverman -->
<g id="node12" class="node">
<title>Haddie Braverman</title>
<g id="a_node12"><a xlink:title="Haddie Braverman">
<path fill="none" stroke="black" d="M78.72,-36C78.72,-36 23.09,-36 23.09,-36 17.09,-36 11.09,-30 11.09,-24 11.09,-24 11.09,-12 11.09,-12 11.09,-6 17.09,0 23.09,0 23.09,0 78.72,0 78.72,0 84.72,0 90.72,-6 90.72,-12 90.72,-12 90.72,-24 90.72,-24 90.72,-30 84.72,-36 78.72,-36"/>
<text text-anchor="middle" x="50.9" y="-15" font-family="Helvetica,sans-Serif" font-size="10.00">Haddie Braverma</text>
</a>
</g>
</g>
<!-- Adam Braverman_Kristina Braverman_sibs&#45;&#45;Haddie Braverman -->
<g id="edge11" class="edge">
<title>Adam Braverman_Kristina Braverman_sibs&#45;&#45;Haddie Braverman</title>
<path fill="none" stroke="black" d="M97.77,-71.85C96.23,-70.12 81.87,-53.92 69.44,-39.91"/>
<polygon fill="black" stroke="black" points="70.63,-38.6 66,-36.02 68.01,-40.93 70.63,-38.6"/>
</g>
<!-- Max Braverman -->
<g id="node13" class="node">
<title>Max Braverman</title>
<g id="a_node13"><a xlink:title="Max Braverman">
<path fill="none" stroke="black" d="M168.98,-36C168.98,-36 120.83,-36 120.83,-36 114.83,-36 108.83,-30 108.83,-24 108.83,-24 108.83,-12 108.83,-12 108.83,-6 114.83,0 120.83,0 120.83,0 168.98,0 168.98,0 174.98,0 180.98,-6 180.98,-12 180.98,-12 180.98,-24 180.98,-24 180.98,-30 174.98,-36 168.98,-36"/>
<text text-anchor="middle" x="144.9" y="-15" font-family="Helvetica,sans-Serif" font-size="10.00">Max Braverman</text>
</a>
</g>
</g>
<!-- Adam Braverman_Kristina Braverman_sibs&#45;&#45;Max Braverman -->
<g id="edge12" class="edge">
<title>Adam Braverman_Kristina Braverman_sibs&#45;&#45;Max Braverman</title>
<path fill="none" stroke="black" d="M98.04,-71.85C99.57,-70.12 113.94,-53.92 126.37,-39.91"/>
<polygon fill="black" stroke="black" points="127.8,-40.93 129.81,-36.02 125.18,-38.6 127.8,-40.93"/>
</g>
<!-- Seth Holt -->
<g id="node15" class="node">
<title>Seth Holt</title>
<g id="a_node15"><a xlink:title="Seth Holt">
<path fill="none" stroke="black" d="M361.9,-145C361.9,-145 331.9,-145 331.9,-145 325.9,-145 319.9,-139 319.9,-133 319.9,-133 319.9,-121 319.9,-121 319.9,-115 325.9,-109 331.9,-109 331.9,-109 361.9,-109 361.9,-109 367.9,-109 373.9,-115 373.9,-121 373.9,-121 373.9,-133 373.9,-133 373.9,-139 367.9,-145 361.9,-145"/>
<text text-anchor="middle" x="346.9" y="-124" font-family="Helvetica,sans-Serif" font-size="10.00">Seth Holt</text>
</a>
</g>
</g>
<!-- Sarah Braverman_Seth Holt&#45;&#45;Seth Holt -->
<g id="edge14" class="edge">
<title>Sarah Braverman_Seth Holt&#45;&#45;Seth Holt</title>
<path fill="none" stroke="red" stroke-width="1.5" d="M301.62,-127C307.64,-127 313.65,-127 319.66,-127"/>
</g>
<!-- Sarah Braverman_Seth Holt_sibs -->
<g id="node16" class="node">
<title>Sarah Braverman_Seth Holt_sibs</title>
</g>
<!-- Sarah Braverman_Seth Holt&#45;&#45;Sarah Braverman_Seth Holt_sibs -->
<g id="edge15" class="edge">
<title>Sarah Braverman_Seth Holt&#45;&#45;Sarah Braverman_Seth Holt_sibs</title>
<path fill="none" stroke="black" d="M300.9,-125.85C300.9,-122.84 300.9,-76.06 300.9,-73.14"/>
</g>
<!-- Amber Holt -->
<g id="node17" class="node">
<title>Amber Holt</title>
<g id="a_node17"><a xlink:title="Amber Holt">
<path fill="none" stroke="black" d="M279.9,-36C279.9,-36 249.9,-36 249.9,-36 243.9,-36 237.9,-30 237.9,-24 237.9,-24 237.9,-12 237.9,-12 237.9,-6 243.9,0 249.9,0 249.9,0 279.9,0 279.9,0 285.9,0 291.9,-6 291.9,-12 291.9,-12 291.9,-24 291.9,-24 291.9,-30 285.9,-36 279.9,-36"/>
<text text-anchor="middle" x="264.9" y="-15" font-family="Helvetica,sans-Serif" font-size="10.00">Amber Holt</text>
</a>
</g>
</g>
<!-- Sarah Braverman_Seth Holt_sibs&#45;&#45;Amber Holt -->
<g id="edge16" class="edge">
<title>Sarah Braverman_Seth Holt_sibs&#45;&#45;Amber Holt</title>
<path fill="none" stroke="black" d="M300.8,-71.85C299.63,-70.13 288.81,-54.19 279.35,-40.26"/>
<polygon fill="black" stroke="black" points="280.72,-39.18 276.47,-36.02 277.83,-41.14 280.72,-39.18"/>
</g>
<!-- Drew Holt -->
<g id="node18" class="node">
<title>Drew Holt</title>
<g id="a_node18"><a xlink:title="Drew Holt">
<path fill="none" stroke="black" d="M351.9,-36C351.9,-36 321.9,-36 321.9,-36 315.9,-36 309.9,-30 309.9,-24 309.9,-24 309.9,-12 309.9,-12 309.9,-6 315.9,0 321.9,0 321.9,0 351.9,0 351.9,0 357.9,0 363.9,-6 363.9,-12 363.9,-12 363.9,-24 363.9,-24 363.9,-30 357.9,-36 351.9,-36"/>
<text text-anchor="middle" x="336.9" y="-15" font-family="Helvetica,sans-Serif" font-size="10.00">Drew Holt</text>
</a>
</g>
</g>
<!-- Sarah Braverman_Seth Holt_sibs&#45;&#45;Drew Holt -->
<g id="edge17" class="edge">
<title>Sarah Braverman_Seth Holt_sibs&#45;&#45;Drew Holt</title>
<path fill="none" stroke="black" d="M301.01,-71.85C302.17,-70.13 313,-54.19 322.46,-40.26"/>
<polygon fill="black" stroke="black" points="323.98,-41.14 325.34,-36.02 321.08,-39.18 323.98,-41.14"/>
</g>
<!-- Julia Braverman&#45;Graham -->
<g id="node19" class="node">
<title>Julia Braverman&#45;Graham</title>
<g id="a_node19"><a xlink:title="Julia Braverman&#45;Graham">
<path fill="none" stroke="black" d="M699.16,-254C699.16,-254 648.65,-254 648.65,-254 642.65,-254 636.65,-248 636.65,-242 636.65,-242 636.65,-230 636.65,-230 636.65,-224 642.65,-218 648.65,-218 648.65,-218 699.16,-218 699.16,-218 705.16,-218 711.16,-224 711.16,-230 711.16,-230 711.16,-242 711.16,-242 711.16,-248 705.16,-254 699.16,-254"/>
<text text-anchor="middle" x="673.9" y="-233" font-family="Helvetica,sans-Serif" font-size="10.00">Julia Braverman</text>
</a>
</g>
</g>
<!-- Julia Braverman&#45;Graham_Joel Graham -->
<g id="node20" class="node">
<title>Julia Braverman&#45;Graham_Joel Graham</title>
</g>
<!-- Julia Braverman&#45;Graham&#45;&#45;Julia Braverman&#45;Graham_Joel Graham -->
<g id="edge18" class="edge">
<title>Julia Braverman&#45;Graham&#45;&#45;Julia Braverman&#45;Graham_Joel Graham</title>
<path fill="none" stroke="black" stroke-width="1.5" d="M711.09,-236C717.17,-236 723.24,-236 729.32,-236"/>
</g>
<!-- Joel Graham -->
<g id="node21" class="node">
<title>Joel Graham</title>
<g id="a_node21"><a xlink:title="Joel Graham">
<path fill="none" stroke="black" d="M795.65,-254C795.65,-254 760.16,-254 760.16,-254 754.16,-254 748.16,-248 748.16,-242 748.16,-242 748.16,-230 748.16,-230 748.16,-224 754.16,-218 760.16,-218 760.16,-218 795.65,-218 795.65,-218 801.65,-218 807.65,-224 807.65,-230 807.65,-230 807.65,-242 807.65,-242 807.65,-248 801.65,-254 795.65,-254"/>
<text text-anchor="middle" x="777.9" y="-233" font-family="Helvetica,sans-Serif" font-size="10.00">Joel Graham</text>
</a>
</g>
</g>
<!-- Julia Braverman&#45;Graham_Joel Graham&#45;&#45;Joel Graham -->
<g id="edge19" class="edge">
<title>Julia Braverman&#45;Graham_Joel Graham&#45;&#45;Joel Graham</title>
<path fill="none" stroke="black" stroke-width="1.5" d="M730.65,-236C736.44,-236 742.22,-236 748,-236"/>
</g>
<!-- Julia Braverman&#45;Graham_Joel Graham_sibs -->
<g id="node22" class="node">
<title>Julia Braverman&#45;Graham_Joel Graham_sibs</title>
</g>
<!-- Julia Braverman&#45;Graham_Joel Graham&#45;&#45;Julia Braverman&#45;Graham_Joel Graham_sibs -->
<g id="edge20" class="edge">
<title>Julia Braverman&#45;Graham_Joel Graham&#45;&#45;Julia Braverman&#45;Graham_Joel Graham_sibs</title>
<path fill="none" stroke="black" d="M729.9,-234.85C729.9,-231.84 729.9,-185.06 729.9,-182.14"/>
</g>
<!-- Sydney Graham -->
<g id="node23" class="node">
<title>Sydney Graham</title>
<g id="a_node23"><a xlink:title="Sydney Graham">
<path fill="none" stroke="black" d="M755.16,-145C755.16,-145 704.65,-145 704.65,-145 698.65,-145 692.65,-139 692.65,-133 692.65,-133 692.65,-121 692.65,-121 692.65,-115 698.65,-109 704.65,-109 704.65,-109 755.16,-109 755.16,-109 761.16,-109 767.16,-115 767.16,-121 767.16,-121 767.16,-133 767.16,-133 767.16,-139 761.16,-145 755.16,-145"/>
<text text-anchor="middle" x="729.9" y="-124" font-family="Helvetica,sans-Serif" font-size="10.00">Sydney Graham</text>
</a>
</g>
</g>
<!-- Julia Braverman&#45;Graham_Joel Graham_sibs&#45;&#45;Sydney Graham -->
<g id="edge21" class="edge">
<title>Julia Braverman&#45;Graham_Joel Graham_sibs&#45;&#45;Sydney Graham</title>
<path fill="none" stroke="black" d="M729.9,-180.85C729.9,-179.18 729.9,-164.01 729.9,-150.35"/>
<polygon fill="black" stroke="black" points="731.65,-150.02 729.9,-145.02 728.15,-150.02 731.65,-150.02"/>
</g>
<!-- Jasmine Trussell -->
<g id="node25" class="node">
<title>Jasmine Trussell</title>
<g id="a_node25"><a xlink:title="Jasmine Trussell">
<path fill="none" stroke="black" d="M663.16,-145C663.16,-145 612.65,-145 612.65,-145 606.65,-145 600.65,-139 600.65,-133 600.65,-133 600.65,-121 600.65,-121 600.65,-115 606.65,-109 612.65,-109 612.65,-109 663.16,-109 663.16,-109 669.16,-109 675.16,-115 675.16,-121 675.16,-121 675.16,-133 675.16,-133 675.16,-139 669.16,-145 663.16,-145"/>
<text text-anchor="middle" x="637.9" y="-124" font-family="Helvetica,sans-Serif" font-size="10.00">Jasmine Trussel</text>
</a>
</g>
</g>
<!-- Crosby Braverman_Jasmine Trussell&#45;&#45;Jasmine Trussell -->
<g id="edge23" class="edge">
<title>Crosby Braverman_Jasmine Trussell&#45;&#45;Jasmine Trussell</title>
<path fill="none" stroke="cyan" stroke-width="1.5" d="M582.78,-127C588.66,-127 594.55,-127 600.44,-127"/>
</g>
<!-- Crosby Braverman_Jasmine Trussell_sibs -->
<g id="node26" class="node">
<title>Crosby Braverman_Jasmine Trussell_sibs</title>
</g>
<!-- Crosby Braverman_Jasmine Trussell&#45;&#45;Crosby Braverman_Jasmine Trussell_sibs -->
<g id="edge24" class="edge">
<title>Crosby Braverman_Jasmine Trussell&#45;&#45;Crosby Braverman_Jasmine Trussell_sibs</title>
<path fill="none" stroke="black" d="M581.9,-125.85C581.9,-122.84 581.9,-76.06 581.9,-73.14"/>
</g>
<!-- Jabbar Trussell -->
<g id="node27" class="node">
<title>Jabbar Trussell</title>
<g id="a_node27"><a xlink:title="Jabbar Trussell">
<path fill="none" stroke="black" d="M604.72,-36C604.72,-36 559.09,-36 559.09,-36 553.09,-36 547.09,-30 547.09,-24 547.09,-24 547.09,-12 547.09,-12 547.09,-6 553.09,0 559.09,0 559.09,0 604.72,0 604.72,0 610.72,0 616.72,-6 616.72,-12 616.72,-12 616.72,-24 616.72,-24 616.72,-30 610.72,-36 604.72,-36"/>
<text text-anchor="middle" x="581.9" y="-15" font-family="Helvetica,sans-Serif" font-size="10.00">Jabbar Trussell</text>
</a>
</g>
</g>
<!-- Crosby Braverman_Jasmine Trussell_sibs&#45;&#45;Jabbar Trussell -->
<g id="edge25" class="edge">
<title>Crosby Braverman_Jasmine Trussell_sibs&#45;&#45;Jabbar Trussell</title>
<path fill="none" stroke="black" d="M581.9,-71.85C581.9,-70.18 581.9,-55.01 581.9,-41.35"/>
<polygon fill="black" stroke="black" points="583.65,-41.02 581.9,-36.02 580.15,-41.02 583.65,-41.02"/>
</g>
</g>
</svg>
