<?xml version="1.0" encoding="UTF-8" standalone="no"?>
<!DOCTYPE svg PUBLIC "-//W3C//DTD SVG 1.1//EN"
 "http://www.w3.org/Graphics/SVG/1.1/DTD/svg11.dtd">
<!-- Generated by graphviz version 2.43.0 (0)
 -->
<!-- Title: %3 Pages: 1 -->
<svg width="646pt" height="262pt"
 viewBox="0.00 0.00 646.00 262.00" xmlns="http://www.w3.org/2000/svg" xmlns:xlink="http://www.w3.org/1999/xlink">
<g id="graph0" class="graph" transform="scale(1 1) rotate(0) translate(4 258)">
<title>%3</title>
<polygon fill="white" stroke="transparent" points="-4,4 -4,-258 642,-258 642,4 -4,4"/>
<!-- Zeek -->
<g id="node1" class="node">
<title>Zeek</title>
<g id="a_node1"><a xlink:title="Zeek">
<path fill="none" stroke="black" d="M242,-254C242,-254 212,-254 212,-254 206,-254 200,-248 200,-242 200,-242 200,-230 200,-230 200,-224 206,-218 212,-218 212,-218 242,-218 242,-218 248,-218 254,-224 254,-230 254,-230 254,-242 254,-242 254,-248 248,-254 242,-254"/>
<text text-anchor="middle" x="227" y="-233" font-family="Helvetica,sans-Serif" font-size="10.00">Zeek</text>
</a>
</g>
</g>
<!-- Zeek_Camille -->
<g id="node2" class="node">
<title>Zeek_Camille</title>
</g>
<!-- Zeek&#45;&#45;Zeek_Camille -->
<g id="edge1" class="edge">
<title>Zeek&#45;&#45;Zeek_Camille</title>
<path fill="none" stroke="black" stroke-width="1.5" d="M254.31,-236C260.35,-236 266.38,-236 272.42,-236"/>
</g>
<!-- Camille -->
<g id="node3" class="node">
<title>Camille</title>
<g id="a_node3"><a xlink:title="Camille">
<path fill="none" stroke="black" d="M334,-254C334,-254 304,-254 304,-254 298,-254 292,-248 292,-242 292,-242 292,-230 292,-230 292,-224 298,-218 304,-218 304,-218 334,-218 334,-218 340,-218 346,-224 346,-230 346,-230 346,-242 346,-242 346,-248 340,-254 334,-254"/>
<text text-anchor="middle" x="319" y="-233" font-family="Helvetica,sans-Serif" font-size="10.00">Camille</text>
</a>
</g>
</g>
<!-- Zeek_Camille&#45;&#45;Camille -->
<g id="edge2" class="edge">
<title>Zeek_Camille&#45;&#45;Camille</title>
<path fill="none" stroke="black" stroke-width="1.5" d="M273.72,-236C279.73,-236 285.75,-236 291.76,-236"/>
</g>
<!-- Zeek_Camille_sibs -->
<g id="node4" class="node">
<title>Zeek_Camille_sibs</title>
</g>
<!-- Zeek_Camille&#45;&#45;Zeek_Camille_sibs -->
<g id="edge3" class="edge">
<title>Zeek_Camille&#45;&#45;Zeek_Camille_sibs</title>
<path fill="none" stroke="black" d="M273,-234.85C273,-231.84 273,-185.06 273,-182.14"/>
</g>
<!-- Adam -->
<g id="node5" class="node">
<title>Adam</title>
<g id="a_node5"><a xlink:title="Adam">
<path fill="none" stroke="black" d="M42,-145C42,-145 12,-145 12,-145 6,-145 0,-139 0,-133 0,-133 0,-121 0,-121 0,-115 6,-109 12,-109 12,-109 42,-109 42,-109 48,-109 54,-115 54,-121 54,-121 54,-133 54,-133 54,-139 48,-145 42,-145"/>
<text text-anchor="middle" x="27" y="-124" font-family="Helvetica,sans-Serif" font-size="10.00">Adam</text>
</a>
</g>
</g>
<!-- Zeek_Camille_sibs&#45;&#45;Adam -->
<g id="edge4" class="edge">
<title>Zeek_Camille_sibs&#45;&#45;Adam</title>
<path fill="none" stroke="black" d="M272.91,-180.99C269.27,-180.76 151.9,-173.03 63,-145 61.64,-144.57 60.27,-144.1 58.89,-143.6"/>
<polygon fill="black" stroke="black" points="59.5,-141.96 54.21,-141.78 58.24,-145.22 59.5,-141.96"/>
</g>
<!-- Sarah -->
<g id="node6" class="node">
<title>Sarah</title>
<g id="a_node6"><a xlink:title="Sarah">
<path fill="none" stroke="black" d="M206,-145C206,-145 176,-145 176,-145 170,-145 164,-139 164,-133 164,-133 164,-121 164,-121 164,-115 170,-109 176,-109 176,-109 206,-109 206,-109 212,-109 218,-115 218,-121 218,-121 218,-133 218,-133 218,-139 212,-145 206,-145"/>
<text text-anchor="middle" x="191" y="-124" font-family="Helvetica,sans-Serif" font-size="10.00">Sarah</text>
</a>
</g>
</g>
<!-- Zeek_Camille_sibs&#45;&#45;Sarah -->
<g id="edge5" class="edge">
<title>Zeek_Camille_sibs&#45;&#45;Sarah</title>
<path fill="none" stroke="black" d="M272.94,-180.96C271.51,-180.04 244.64,-162.67 222.05,-148.07"/>
<polygon fill="black" stroke="black" points="222.75,-146.44 217.6,-145.19 220.85,-149.38 222.75,-146.44"/>
</g>
<!-- Julia -->
<g id="node7" class="node">
<title>Julia</title>
<g id="a_node7"><a xlink:title="Julia">
<path fill="none" stroke="black" d="M370,-145C370,-145 340,-145 340,-145 334,-145 328,-139 328,-133 328,-133 328,-121 328,-121 328,-115 334,-109 340,-109 340,-109 370,-109 370,-109 376,-109 382,-115 382,-121 382,-121 382,-133 382,-133 382,-139 376,-145 370,-145"/>
<text text-anchor="middle" x="355" y="-124" font-family="Helvetica,sans-Serif" font-size="10.00">Julia</text>
</a>
</g>
</g>
<!-- Zeek_Camille_sibs&#45;&#45;Julia -->
<g id="edge6" class="edge">
<title>Zeek_Camille_sibs&#45;&#45;Julia</title>
<path fill="none" stroke="black" d="M273.06,-180.96C274.49,-180.04 301.36,-162.67 323.95,-148.07"/>
<polygon fill="black" stroke="black" points="325.15,-149.38 328.4,-145.19 323.25,-146.44 325.15,-149.38"/>
</g>
<!-- Crosby -->
<g id="node8" class="node">
<title>Crosby</title>
<g id="a_node8"><a xlink:title="Crosby">
<path fill="none" stroke="black" d="M534,-145C534,-145 504,-145 504,-145 498,-145 492,-139 492,-133 492,-133 492,-121 492,-121 492,-115 498,-109 504,-109 504,-109 534,-109 534,-109 540,-109 546,-115 546,-121 546,-121 546,-133 546,-133 546,-139 540,-145 534,-145"/>
<text text-anchor="middle" x="519" y="-124" font-family="Helvetica,sans-Serif" font-size="10.00">Crosby</text>
</a>
</g>
</g>
<!-- Zeek_Camille_sibs&#45;&#45;Crosby -->
<g id="edge7" class="edge">
<title>Zeek_Camille_sibs&#45;&#45;Crosby</title>
<path fill="none" stroke="black" d="M273.09,-180.99C276.73,-180.76 394.1,-173.03 483,-145 484.36,-144.57 485.73,-144.1 487.11,-143.6"/>
<polygon fill="black" stroke="black" points="487.76,-145.22 491.79,-141.78 486.5,-141.96 487.76,-145.22"/>
</g>
<!-- Adam_Kristina -->
<g id="node9" class="node">
<title>Adam_Kristina</title>
</g>
<!-- Adam&#45;&#45;Adam_Kristina -->
<g id="edge8" class="edge">
<title>Adam&#45;&#45;Adam_Kristina</title>
<path fill="none" stroke="black" stroke-width="1.5" d="M54.31,-127C60.35,-127 66.38,-127 72.42,-127"/>
</g>
<!-- Sarah_Seth -->
<g id="node14" class="node">
<title>Sarah_Seth</title>
</g>
<!-- Sarah&#45;&#45;Sarah_Seth -->
<g id="edge13" class="edge">
<title>Sarah&#45;&#45;Sarah_Seth</title>
<path fill="none" stroke="red" stroke-width="1.5" d="M218.31,-127C224.35,-127 230.38,-127 236.42,-127"/>
</g>
<!-- Julia_Joel -->
<g id="node19" class="node">
<title>Julia_Joel</title>
</g>
<!-- Julia&#45;&#45;Julia_Joel -->
<g id="edge18" class="edge">
<title>Julia&#45;&#45;Julia_Joel</title>
<path fill="none" stroke="black" stroke-width="1.5" d="M382.31,-127C388.35,-127 394.38,-127 400.42,-127"/>
</g>
<!-- Crosby_Jasmine -->
<g id="node23" class="node">
<title>Crosby_Jasmine</title>
</g>
<!-- Crosby&#45;&#45;Crosby_Jasmine -->
<g id="edge22" class="edge">
<title>Crosby&#45;&#45;Crosby_Jasmine</title>
<path fill="none" stroke="cyan" stroke-width="1.5" d="M546.31,-127C552.35,-127 558.38,-127 564.42,-127"/>
</g>
<!-- Kristina -->
<g id="node10" class="node">
<title>Kristina</title>
<g id="a_node10"><a xlink:title="Kristina">
<path fill="none" stroke="black" d="M134,-145C134,-145 104,-145 104,-145 98,-145 92,-139 92,-133 92,-133 92,-121 92,-121 92,-115 98,-109 104,-109 104,-109 134,-109 134,-109 140,-109 146,-115 146,-121 146,-121 146,-133 146,-133 146,-139 140,-145 134,-145"/>
<text text-anchor="middle" x="119" y="-124" font-family="Helvetica,sans-Serif" font-size="10.00">Kristina</text>
</a>
</g>
</g>
<!-- Adam_Kristina&#45;&#45;Kristina -->
<g id="edge9" class="edge">
<title>Adam_Kristina&#45;&#45;Kristina</title>
<path fill="none" stroke="black" stroke-width="1.5" d="M73.72,-127C79.73,-127 85.75,-127 91.76,-127"/>
</g>
<!-- Adam_Kristina_sibs -->
<g id="node11" class="node">
<title>Adam_Kristina_sibs</title>
</g>
<!-- Adam_Kristina&#45;&#45;Adam_Kristina_sibs -->
<g id="edge10" class="edge">
<title>Adam_Kristina&#45;&#45;Adam_Kristina_sibs</title>
<path fill="none" stroke="black" d="M73,-125.85C73,-122.84 73,-76.06 73,-73.14"/>
</g>
<!-- Haddie -->
<g id="node12" class="node">
<title>Haddie</title>
<g id="a_node12"><a xlink:title="Haddie">
<path fill="none" stroke="black" d="M52,-36C52,-36 22,-36 22,-36 16,-36 10,-30 10,-24 10,-24 10,-12 10,-12 10,-6 16,0 22,0 22,0 52,0 52,0 58,0 64,-6 64,-12 64,-12 64,-24 64,-24 64,-30 58,-36 52,-36"/>
<text text-anchor="middle" x="37" y="-15" font-family="Helvetica,sans-Serif" font-size="10.00">Haddie</text>
</a>
</g>
</g>
<!-- Adam_Kristina_sibs&#45;&#45;Haddie -->
<g id="edge11" class="edge">
<title>Adam_Kristina_sibs&#45;&#45;Haddie</title>
<path fill="none" stroke="black" d="M72.9,-71.85C71.73,-70.13 60.9,-54.19 51.44,-40.26"/>
<polygon fill="black" stroke="black" points="52.82,-39.18 48.56,-36.02 49.93,-41.14 52.82,-39.18"/>
</g>
<!-- Max -->
<g id="node13" class="node">
<title>Max</title>
<g id="a_node13"><a xlink:title="Max">
<path fill="none" stroke="black" d="M124,-36C124,-36 94,-36 94,-36 88,-36 82,-30 82,-24 82,-24 82,-12 82,-12 82,-6 88,0 94,0 94,0 124,0 124,0 130,0 136,-6 136,-12 136,-12 136,-24 136,-24 136,-30 130,-36 124,-36"/>
<text text-anchor="middle" x="109" y="-15" font-family="Helvetica,sans-Serif" font-size="10.00">Max</text>
</a>
</g>
</g>
<!-- Adam_Kristina_sibs&#45;&#45;Max -->
<g id="edge12" class="edge">
<title>Adam_Kristina_sibs&#45;&#45;Max</title>
<path fill="none" stroke="black" d="M73.1,-71.85C74.27,-70.13 85.1,-54.19 94.56,-40.26"/>
<polygon fill="black" stroke="black" points="96.07,-41.14 97.44,-36.02 93.18,-39.18 96.07,-41.14"/>
</g>
<!-- Seth -->
<g id="node15" class="node">
<title>Seth</title>
<g id="a_node15"><a xlink:title="Seth">
<path fill="none" stroke="black" d="M298,-145C298,-145 268,-145 268,-145 262,-145 256,-139 256,-133 256,-133 256,-121 256,-121 256,-115 262,-109 268,-109 268,-109 298,-109 298,-109 304,-109 310,-115 310,-121 310,-121 310,-133 310,-133 310,-139 304,-145 298,-145"/>
<text text-anchor="middle" x="283" y="-124" font-family="Helvetica,sans-Serif" font-size="10.00">Seth</text>
</a>
</g>
</g>
<!-- Sarah_Seth&#45;&#45;Seth -->
<g id="edge14" class="edge">
<title>Sarah_Seth&#45;&#45;Seth</title>
<path fill="none" stroke="red" stroke-width="1.5" d="M237.72,-127C243.73,-127 249.75,-127 255.76,-127"/>
</g>
<!-- Sarah_Seth_sibs -->
<g id="node16" class="node">
<title>Sarah_Seth_sibs</title>
</g>
<!-- Sarah_Seth&#45;&#45;Sarah_Seth_sibs -->
<g id="edge15" class="edge">
<title>Sarah_Seth&#45;&#45;Sarah_Seth_sibs</title>
<path fill="none" stroke="black" d="M237,-125.85C237,-122.84 237,-76.06 237,-73.14"/>
</g>
<!-- Amber -->
<g id="node17" class="node">
<title>Amber</title>
<g id="a_node17"><a xlink:title="Amber">
<path fill="none" stroke="black" d="M224,-36C224,-36 194,-36 194,-36 188,-36 182,-30 182,-24 182,-24 182,-12 182,-12 182,-6 188,0 194,0 194,0 224,0 224,0 230,0 236,-6 236,-12 236,-12 236,-24 236,-24 236,-30 230,-36 224,-36"/>
<text text-anchor="middle" x="209" y="-15" font-family="Helvetica,sans-Serif" font-size="10.00">Amber</text>
</a>
</g>
</g>
<!-- Sarah_Seth_sibs&#45;&#45;Amber -->
<g id="edge16" class="edge">
<title>Sarah_Seth_sibs&#45;&#45;Amber</title>
<path fill="none" stroke="black" d="M236.92,-71.85C236.02,-70.15 227.74,-54.47 220.42,-40.63"/>
<polygon fill="black" stroke="black" points="221.88,-39.63 217.99,-36.02 218.78,-41.26 221.88,-39.63"/>
</g>
<!-- Drew -->
<g id="node18" class="node">
<title>Drew</title>
<g id="a_node18"><a xlink:title="Drew">
<path fill="none" stroke="black" d="M296,-36C296,-36 266,-36 266,-36 260,-36 254,-30 254,-24 254,-24 254,-12 254,-12 254,-6 260,0 266,0 266,0 296,0 296,0 302,0 308,-6 308,-12 308,-12 308,-24 308,-24 308,-30 302,-36 296,-36"/>
<text text-anchor="middle" x="281" y="-15" font-family="Helvetica,sans-Serif" font-size="10.00">Drew</text>
</a>
</g>
</g>
<!-- Sarah_Seth_sibs&#45;&#45;Drew -->
<g id="edge17" class="edge">
<title>Sarah_Seth_sibs&#45;&#45;Drew</title>
<path fill="none" stroke="black" d="M237.13,-71.85C238.56,-70.12 252.01,-53.92 263.64,-39.91"/>
<polygon fill="black" stroke="black" points="265.02,-40.99 266.87,-36.02 262.33,-38.75 265.02,-40.99"/>
</g>
<!-- Joel -->
<g id="node20" class="node">
<title>Joel</title>
<g id="a_node20"><a xlink:title="Joel">
<path fill="none" stroke="black" d="M462,-145C462,-145 432,-145 432,-145 426,-145 420,-139 420,-133 420,-133 420,-121 420,-121 420,-115 426,-109 432,-109 432,-109 462,-109 462,-109 468,-109 474,-115 474,-121 474,-121 474,-133 474,-133 474,-139 468,-145 462,-145"/>
<text text-anchor="middle" x="447" y="-124" font-family="Helvetica,sans-Serif" font-size="10.00">Joel</text>
</a>
</g>
</g>
<!-- Julia_Joel&#45;&#45;Joel -->
<g id="edge19" class="edge">
<title>Julia_Joel&#45;&#45;Joel</title>
<path fill="none" stroke="black" stroke-width="1.5" d="M401.72,-127C407.73,-127 413.75,-127 419.76,-127"/>
</g>
<!-- Julia_Joel_sibs -->
<g id="node21" class="node">
<title>Julia_Joel_sibs</title>
</g>
<!-- Julia_Joel&#45;&#45;Julia_Joel_sibs -->
<g id="edge20" class="edge">
<title>Julia_Joel&#45;&#45;Julia_Joel_sibs</title>
<path fill="none" stroke="black" d="M401,-125.85C401,-122.84 401,-76.06 401,-73.14"/>
</g>
<!-- Sydney -->
<g id="node22" class="node">
<title>Sydney</title>
<g id="a_node22"><a xlink:title="Sydney">
<path fill="none" stroke="black" d="M416,-36C416,-36 386,-36 386,-36 380,-36 374,-30 374,-24 374,-24 374,-12 374,-12 374,-6 380,0 386,0 386,0 416,0 416,0 422,0 428,-6 428,-12 428,-12 428,-24 428,-24 428,-30 422,-36 416,-36"/>
<text text-anchor="middle" x="401" y="-15" font-family="Helvetica,sans-Serif" font-size="10.00">Sydney</text>
</a>
</g>
</g>
<!-- Julia_Joel_sibs&#45;&#45;Sydney -->
<g id="edge21" class="edge">
<title>Julia_Joel_sibs&#45;&#45;Sydney</title>
<path fill="none" stroke="black" d="M401,-71.85C401,-70.18 401,-55.01 401,-41.35"/>
<polygon fill="black" stroke="black" points="402.75,-41.02 401,-36.02 399.25,-41.02 402.75,-41.02"/>
</g>
<!-- Jasmine -->
<g id="node24" class="node">
<title>Jasmine</title>
<g id="a_node24"><a xlink:title="Jasmine">
<path fill="none" stroke="black" d="M626,-145C626,-145 596,-145 596,-145 590,-145 584,-139 584,-133 584,-133 584,-121 584,-121 584,-115 590,-109 596,-109 596,-109 626,-109 626,-109 632,-109 638,-115 638,-121 638,-121 638,-133 638,-133 638,-139 632,-145 626,-145"/>
<text text-anchor="middle" x="611" y="-124" font-family="Helvetica,sans-Serif" font-size="10.00">Jasmine</text>
</a>
</g>
</g>
<!-- Crosby_Jasmine&#45;&#45;Jasmine -->
<g id="edge23" class="edge">
<title>Crosby_Jasmine&#45;&#45;Jasmine</title>
<path fill="none" stroke="cyan" stroke-width="1.5" d="M565.72,-127C571.73,-127 577.75,-127 583.76,-127"/>
</g>
<!-- Crosby_Jasmine_sibs -->
<g id="node25" class="node">
<title>Crosby_Jasmine_sibs</title>
</g>
<!-- Crosby_Jasmine&#45;&#45;Crosby_Jasmine_sibs -->
<g id="edge24" class="edge">
<title>Crosby_Jasmine&#45;&#45;Crosby_Jasmine_sibs</title>
<path fill="none" stroke="black" d="M565,-125.85C565,-122.84 565,-76.06 565,-73.14"/>
</g>
<!-- Jabbar -->
<g id="node26" class="node">
<title>Jabbar</title>
<g id="a_node26"><a xlink:title="Jabbar">
<path fill="none" stroke="black" d="M580,-36C580,-36 550,-36 550,-36 544,-36 538,-30 538,-24 538,-24 538,-12 538,-12 538,-6 544,0 550,0 550,0 580,0 580,0 586,0 592,-6 592,-12 592,-12 592,-24 592,-24 592,-30 586,-36 580,-36"/>
<text text-anchor="middle" x="565" y="-15" font-family="Helvetica,sans-Serif" font-size="10.00">Jabbar</text>
</a>
</g>
</g>
<!-- Crosby_Jasmine_sibs&#45;&#45;Jabbar -->
<g id="edge25" class="edge">
<title>Crosby_Jasmine_sibs&#45;&#45;Jabbar</title>
<path fill="none" stroke="black" d="M565,-71.85C565,-70.18 565,-55.01 565,-41.35"/>
<polygon fill="black" stroke="black" points="566.75,-41.02 565,-36.02 563.25,-41.02 566.75,-41.02"/>
</g>
</g>
</svg>
