<?xml version="1.0" encoding="UTF-8" standalone="no"?>
<!DOCTYPE svg PUBLIC "-//W3C//DTD SVG 1.1//EN"
 "http://www.w3.org/Graphics/SVG/1.1/DTD/svg11.dtd">
<!-- Generated by graphviz version 2.43.0 (0)
 -->
<!-- Title: %3 Pages: 1 -->
<svg width="1203pt" height="267pt"
 viewBox="0.00 0.00 1202.54 267.20" xmlns="http://www.w3.org/2000/svg" xmlns:xlink="http://www.w3.org/1999/xlink">
<g id="graph0" class="graph" transform="scale(1 1) rotate(0) translate(4 263.2)">
<title>%3</title>
<polygon fill="white" stroke="transparent" points="-4,4 -4,-263.2 1198.54,-263.2 1198.54,4 -4,4"/>
<!-- Zeek Braverman -->
<g id="node1" class="node">
<title>Zeek Braverman</title>
<polygon fill="none" stroke="black" points="486.45,-259.2 366.48,-259.2 366.48,-223.2 486.45,-223.2 486.45,-259.2"/>
<text text-anchor="middle" x="426.47" y="-237" font-family="Helvetica,sans-Serif" font-size="14.00">Zeek Braverman</text>
</g>
<!-- Zeek Braverman_Camille Braverman -->
<g id="node2" class="node">
<title>Zeek Braverman_Camille Braverman</title>
<ellipse fill="black" stroke="black" cx="506.47" cy="-241.2" rx="1.8" ry="1.8"/>
</g>
<!-- Zeek Braverman&#45;&#45;Zeek Braverman_Camille Braverman -->
<g id="edge1" class="edge">
<title>Zeek Braverman&#45;&#45;Zeek Braverman_Camille Braverman</title>
<path fill="none" stroke="black" d="M486.47,-241.2C492.51,-241.2 498.55,-241.2 504.59,-241.2"/>
</g>
<!-- Camille Braverman -->
<g id="node3" class="node">
<title>Camille Braverman</title>
<polygon fill="none" stroke="black" points="661,-259.2 525.93,-259.2 525.93,-223.2 661,-223.2 661,-259.2"/>
<text text-anchor="middle" x="593.47" y="-237" font-family="Helvetica,sans-Serif" font-size="14.00">Camille Braverman</text>
</g>
<!-- Zeek Braverman_Camille Braverman&#45;&#45;Camille Braverman -->
<g id="edge2" class="edge">
<title>Zeek Braverman_Camille Braverman&#45;&#45;Camille Braverman</title>
<path fill="none" stroke="black" d="M508.5,-241.2C514.26,-241.2 520.01,-241.2 525.76,-241.2"/>
</g>
<!-- Zeek Braverman_Camille Braverman_sibs -->
<g id="node4" class="node">
<title>Zeek Braverman_Camille Braverman_sibs</title>
<ellipse fill="black" stroke="black" cx="506.47" cy="-185.4" rx="1.8" ry="1.8"/>
</g>
<!-- Zeek Braverman_Camille Braverman&#45;&#45;Zeek Braverman_Camille Braverman_sibs -->
<g id="edge3" class="edge">
<title>Zeek Braverman_Camille Braverman&#45;&#45;Zeek Braverman_Camille Braverman_sibs</title>
<path fill="none" stroke="black" d="M506.47,-239.27C506.47,-232.79 506.47,-194.63 506.47,-187.54"/>
</g>
<!-- Adam Braverman -->
<g id="node5" class="node">
<title>Adam Braverman</title>
<polygon fill="none" stroke="black" points="124.9,-147.6 0.03,-147.6 0.03,-111.6 124.9,-111.6 124.9,-147.6"/>
<text text-anchor="middle" x="62.47" y="-125.4" font-family="Helvetica,sans-Serif" font-size="14.00">Adam Braverman</text>
</g>
<!-- Zeek Braverman_Camille Braverman_sibs&#45;&#45;Adam Braverman -->
<g id="edge4" class="edge">
<title>Zeek Braverman_Camille Braverman_sibs&#45;&#45;Adam Braverman</title>
<path fill="none" stroke="black" d="M504.63,-184.32C483.77,-183.34 288.76,-173.73 133.47,-147.6 130.72,-147.14 127.91,-146.63 125.09,-146.09"/>
</g>
<!-- Sarah Braverman -->
<g id="node6" class="node">
<title>Sarah Braverman</title>
<polygon fill="none" stroke="black" points="442.18,-147.6 316.75,-147.6 316.75,-111.6 442.18,-111.6 442.18,-147.6"/>
<text text-anchor="middle" x="379.47" y="-125.4" font-family="Helvetica,sans-Serif" font-size="14.00">Sarah Braverman</text>
</g>
<!-- Zeek Braverman_Camille Braverman_sibs&#45;&#45;Sarah Braverman -->
<g id="edge5" class="edge">
<title>Zeek Braverman_Camille Braverman_sibs&#45;&#45;Sarah Braverman</title>
<path fill="none" stroke="black" d="M505.04,-183.8C496.67,-180.25 453.19,-161.83 419.71,-147.65"/>
</g>
<!-- Julia Braverman -->
<g id="node7" class="node">
<title>Julia Braverman</title>
<polygon fill="none" stroke="black" points="691.12,-147.6 573.81,-147.6 573.81,-111.6 691.12,-111.6 691.12,-147.6"/>
<text text-anchor="middle" x="632.47" y="-125.4" font-family="Helvetica,sans-Serif" font-size="14.00">Julia Braverman</text>
</g>
<!-- Zeek Braverman_Camille Braverman_sibs&#45;&#45;Julia Braverman -->
<g id="edge6" class="edge">
<title>Zeek Braverman_Camille Braverman_sibs&#45;&#45;Julia Braverman</title>
<path fill="none" stroke="black" d="M507.88,-183.8C516.18,-180.25 559.32,-161.83 592.53,-147.65"/>
</g>
<!-- Crosby Braverman -->
<g id="node8" class="node">
<title>Crosby Braverman</title>
<polygon fill="none" stroke="black" points="841.67,-147.6 709.26,-147.6 709.26,-111.6 841.67,-111.6 841.67,-147.6"/>
<text text-anchor="middle" x="775.47" y="-125.4" font-family="Helvetica,sans-Serif" font-size="14.00">Crosby Braverman</text>
</g>
<!-- Zeek Braverman_Camille Braverman_sibs&#45;&#45;Crosby Braverman -->
<g id="edge7" class="edge">
<title>Zeek Braverman_Camille Braverman_sibs&#45;&#45;Crosby Braverman</title>
<path fill="none" stroke="black" d="M508.02,-184.13C521.55,-181.74 620.59,-164.22 700.47,-147.6 703.34,-147 706.28,-146.38 709.24,-145.74"/>
</g>
<!-- Adam Braverman_Kristina Braverman -->
<g id="node9" class="node">
<title>Adam Braverman_Kristina Braverman</title>
<ellipse fill="black" stroke="black" cx="144.47" cy="-129.6" rx="1.8" ry="1.8"/>
</g>
<!-- Adam Braverman&#45;&#45;Adam Braverman_Kristina Braverman -->
<g id="edge8" class="edge">
<title>Adam Braverman&#45;&#45;Adam Braverman_Kristina Braverman</title>
<path fill="none" stroke="black" d="M124.93,-129.6C130.83,-129.6 136.73,-129.6 142.63,-129.6"/>
</g>
<!-- Sarah Braverman_Seth Holt -->
<g id="node14" class="node">
<title>Sarah Braverman_Seth Holt</title>
<ellipse fill="red" stroke="red" cx="462.47" cy="-129.6" rx="1.8" ry="1.8"/>
</g>
<!-- Sarah Braverman&#45;&#45;Sarah Braverman_Seth Holt -->
<g id="edge13" class="edge">
<title>Sarah Braverman&#45;&#45;Sarah Braverman_Seth Holt</title>
<path fill="none" stroke="red" d="M442.36,-129.6C448.44,-129.6 454.51,-129.6 460.58,-129.6"/>
</g>
<!-- Crosby Braverman_Jasmine Trussell -->
<g id="node24" class="node">
<title>Crosby Braverman_Jasmine Trussell</title>
<ellipse fill="cyan" stroke="cyan" cx="861.47" cy="-129.6" rx="1.8" ry="1.8"/>
</g>
<!-- Crosby Braverman&#45;&#45;Crosby Braverman_Jasmine Trussell -->
<g id="edge22" class="edge">
<title>Crosby Braverman&#45;&#45;Crosby Braverman_Jasmine Trussell</title>
<path fill="none" stroke="cyan" d="M841.98,-129.6C847.87,-129.6 853.75,-129.6 859.64,-129.6"/>
</g>
<!-- Kristina Braverman -->
<g id="node10" class="node">
<title>Kristina Braverman</title>
<polygon fill="none" stroke="black" points="299.01,-147.6 163.92,-147.6 163.92,-111.6 299.01,-111.6 299.01,-147.6"/>
<text text-anchor="middle" x="231.47" y="-125.4" font-family="Helvetica,sans-Serif" font-size="14.00">Kristina Braverman</text>
</g>
<!-- Adam Braverman_Kristina Braverman&#45;&#45;Kristina Braverman -->
<g id="edge9" class="edge">
<title>Adam Braverman_Kristina Braverman&#45;&#45;Kristina Braverman</title>
<path fill="none" stroke="black" d="M146.5,-129.6C152.26,-129.6 158.01,-129.6 163.76,-129.6"/>
</g>
<!-- Adam Braverman_Kristina Braverman_sibs -->
<g id="node11" class="node">
<title>Adam Braverman_Kristina Braverman_sibs</title>
<ellipse fill="black" stroke="black" cx="144.47" cy="-73.8" rx="1.8" ry="1.8"/>
</g>
<!-- Adam Braverman_Kristina Braverman&#45;&#45;Adam Braverman_Kristina Braverman_sibs -->
<g id="edge10" class="edge">
<title>Adam Braverman_Kristina Braverman&#45;&#45;Adam Braverman_Kristina Braverman_sibs</title>
<path fill="none" stroke="black" d="M144.47,-127.67C144.47,-121.19 144.47,-83.03 144.47,-75.94"/>
</g>
<!-- Haddie Braverman -->
<g id="node12" class="node">
<title>Haddie Braverman</title>
<polygon fill="none" stroke="black" points="139.69,-36 7.24,-36 7.24,0 139.69,0 139.69,-36"/>
<text text-anchor="middle" x="73.47" y="-13.8" font-family="Helvetica,sans-Serif" font-size="14.00">Haddie Braverman</text>
</g>
<!-- Adam Braverman_Kristina Braverman_sibs&#45;&#45;Haddie Braverman -->
<g id="edge11" class="edge">
<title>Adam Braverman_Kristina Braverman_sibs&#45;&#45;Haddie Braverman</title>
<path fill="none" stroke="black" d="M143.46,-72.04C138.34,-68.16 114.62,-50.19 96.2,-36.23"/>
</g>
<!-- Max Braverman -->
<g id="node13" class="node">
<title>Max Braverman</title>
<polygon fill="none" stroke="black" points="272.77,-36 158.16,-36 158.16,0 272.77,0 272.77,-36"/>
<text text-anchor="middle" x="215.47" y="-13.8" font-family="Helvetica,sans-Serif" font-size="14.00">Max Braverman</text>
</g>
<!-- Adam Braverman_Kristina Braverman_sibs&#45;&#45;Max Braverman -->
<g id="edge12" class="edge">
<title>Adam Braverman_Kristina Braverman_sibs&#45;&#45;Max Braverman</title>
<path fill="none" stroke="black" d="M145.47,-72.04C150.59,-68.16 174.31,-50.19 192.73,-36.23"/>
</g>
<!-- Seth Holt -->
<g id="node15" class="node">
<title>Seth Holt</title>
<polygon fill="none" stroke="black" points="556.05,-147.6 482.88,-147.6 482.88,-111.6 556.05,-111.6 556.05,-147.6"/>
<text text-anchor="middle" x="519.47" y="-125.4" font-family="Helvetica,sans-Serif" font-size="14.00">Seth Holt</text>
</g>
<!-- Sarah Braverman_Seth Holt&#45;&#45;Seth Holt -->
<g id="edge14" class="edge">
<title>Sarah Braverman_Seth Holt&#45;&#45;Seth Holt</title>
<path fill="none" stroke="red" d="M464.69,-129.6C470.68,-129.6 476.67,-129.6 482.66,-129.6"/>
</g>
<!-- Sarah Braverman_Seth Holt_sibs -->
<g id="node16" class="node">
<title>Sarah Braverman_Seth Holt_sibs</title>
<ellipse fill="black" stroke="black" cx="462.47" cy="-73.8" rx="1.8" ry="1.8"/>
</g>
<!-- Sarah Braverman_Seth Holt&#45;&#45;Sarah Braverman_Seth Holt_sibs -->
<g id="edge15" class="edge">
<title>Sarah Braverman_Seth Holt&#45;&#45;Sarah Braverman_Seth Holt_sibs</title>
<path fill="none" stroke="black" d="M462.47,-127.67C462.47,-121.19 462.47,-83.03 462.47,-75.94"/>
</g>
<!-- Amber Holt -->
<g id="node17" class="node">
<title>Amber Holt</title>
<polygon fill="none" stroke="black" points="455.49,-36 369.44,-36 369.44,0 455.49,0 455.49,-36"/>
<text text-anchor="middle" x="412.47" y="-13.8" font-family="Helvetica,sans-Serif" font-size="14.00">Amber Holt</text>
</g>
<!-- Sarah Braverman_Seth Holt_sibs&#45;&#45;Amber Holt -->
<g id="edge16" class="edge">
<title>Sarah Braverman_Seth Holt_sibs&#45;&#45;Amber Holt</title>
<path fill="none" stroke="black" d="M461.6,-71.87C457.68,-67.65 441.29,-50.02 428.5,-36.26"/>
</g>
<!-- Drew Holt -->
<g id="node18" class="node">
<title>Drew Holt</title>
<polygon fill="none" stroke="black" points="551.42,-36 473.51,-36 473.51,0 551.42,0 551.42,-36"/>
<text text-anchor="middle" x="512.47" y="-13.8" font-family="Helvetica,sans-Serif" font-size="14.00">Drew Holt</text>
</g>
<!-- Sarah Braverman_Seth Holt_sibs&#45;&#45;Drew Holt -->
<g id="edge17" class="edge">
<title>Sarah Braverman_Seth Holt_sibs&#45;&#45;Drew Holt</title>
<path fill="none" stroke="black" d="M463.33,-71.87C467.25,-67.65 483.64,-50.02 496.43,-36.26"/>
</g>
<!-- Julia Braverman&#45;Graham -->
<g id="node19" class="node">
<title>Julia Braverman&#45;Graham</title>
<polygon fill="none" stroke="black" points="1058.85,-259.2 886.08,-259.2 886.08,-223.2 1058.85,-223.2 1058.85,-259.2"/>
<text text-anchor="middle" x="972.47" y="-237" font-family="Helvetica,sans-Serif" font-size="14.00">Julia Braverman&#45;Graham</text>
</g>
<!-- Julia Braverman&#45;Graham_Joel Graham -->
<g id="node20" class="node">
<title>Julia Braverman&#45;Graham_Joel Graham</title>
<ellipse fill="black" stroke="black" cx="1078.47" cy="-241.2" rx="1.8" ry="1.8"/>
</g>
<!-- Julia Braverman&#45;Graham&#45;&#45;Julia Braverman&#45;Graham_Joel Graham -->
<g id="edge18" class="edge">
<title>Julia Braverman&#45;Graham&#45;&#45;Julia Braverman&#45;Graham_Joel Graham</title>
<path fill="none" stroke="black" d="M1059,-241.2C1064.88,-241.2 1070.76,-241.2 1076.64,-241.2"/>
</g>
<!-- Joel Graham -->
<g id="node21" class="node">
<title>Joel Graham</title>
<polygon fill="none" stroke="black" points="1194.61,-259.2 1098.32,-259.2 1098.32,-223.2 1194.61,-223.2 1194.61,-259.2"/>
<text text-anchor="middle" x="1146.47" y="-237" font-family="Helvetica,sans-Serif" font-size="14.00">Joel Graham</text>
</g>
<!-- Julia Braverman&#45;Graham_Joel Graham&#45;&#45;Joel Graham -->
<g id="edge19" class="edge">
<title>Julia Braverman&#45;Graham_Joel Graham&#45;&#45;Joel Graham</title>
<path fill="none" stroke="black" d="M1080.32,-241.2C1086.27,-241.2 1092.21,-241.2 1098.15,-241.2"/>
</g>
<!-- Julia Braverman&#45;Graham_Joel Graham_sibs -->
<g id="node22" class="node">
<title>Julia Braverman&#45;Graham_Joel Graham_sibs</title>
<ellipse fill="black" stroke="black" cx="1078.47" cy="-185.4" rx="1.8" ry="1.8"/>
</g>
<!-- Julia Braverman&#45;Graham_Joel Graham&#45;&#45;Julia Braverman&#45;Graham_Joel Graham_sibs -->
<g id="edge20" class="edge">
<title>Julia Braverman&#45;Graham_Joel Graham&#45;&#45;Julia Braverman&#45;Graham_Joel Graham_sibs</title>
<path fill="none" stroke="black" d="M1078.47,-239.27C1078.47,-232.79 1078.47,-194.63 1078.47,-187.54"/>
</g>
<!-- Sydney Graham -->
<g id="node23" class="node">
<title>Sydney Graham</title>
<polygon fill="none" stroke="black" points="1137.12,-147.6 1019.81,-147.6 1019.81,-111.6 1137.12,-111.6 1137.12,-147.6"/>
<text text-anchor="middle" x="1078.47" y="-125.4" font-family="Helvetica,sans-Serif" font-size="14.00">Sydney Graham</text>
</g>
<!-- Julia Braverman&#45;Graham_Joel Graham_sibs&#45;&#45;Sydney Graham -->
<g id="edge21" class="edge">
<title>Julia Braverman&#45;Graham_Joel Graham_sibs&#45;&#45;Sydney Graham</title>
<path fill="none" stroke="black" d="M1078.47,-183.47C1078.47,-179.25 1078.47,-161.62 1078.47,-147.86"/>
</g>
<!-- Jasmine Trussell -->
<g id="node25" class="node">
<title>Jasmine Trussell</title>
<polygon fill="none" stroke="black" points="1001.73,-147.6 881.2,-147.6 881.2,-111.6 1001.73,-111.6 1001.73,-147.6"/>
<text text-anchor="middle" x="941.47" y="-125.4" font-family="Helvetica,sans-Serif" font-size="14.00">Jasmine Trussell</text>
</g>
<!-- Crosby Braverman_Jasmine Trussell&#45;&#45;Jasmine Trussell -->
<g id="edge23" class="edge">
<title>Crosby Braverman_Jasmine Trussell&#45;&#45;Jasmine Trussell</title>
<path fill="none" stroke="cyan" d="M863.34,-129.6C869.24,-129.6 875.14,-129.6 881.04,-129.6"/>
</g>
<!-- Crosby Braverman_Jasmine Trussell_sibs -->
<g id="node26" class="node">
<title>Crosby Braverman_Jasmine Trussell_sibs</title>
<ellipse fill="black" stroke="black" cx="861.47" cy="-73.8" rx="1.8" ry="1.8"/>
</g>
<!-- Crosby Braverman_Jasmine Trussell&#45;&#45;Crosby Braverman_Jasmine Trussell_sibs -->
<g id="edge24" class="edge">
<title>Crosby Braverman_Jasmine Trussell&#45;&#45;Crosby Braverman_Jasmine Trussell_sibs</title>
<path fill="none" stroke="black" d="M861.47,-127.67C861.47,-121.19 861.47,-83.03 861.47,-75.94"/>
</g>
<!-- Jabbar Trussell -->
<g id="node27" class="node">
<title>Jabbar Trussell</title>
<polygon fill="none" stroke="black" points="916.91,-36 806.02,-36 806.02,0 916.91,0 916.91,-36"/>
<text text-anchor="middle" x="861.47" y="-13.8" font-family="Helvetica,sans-Serif" font-size="14.00">Jabbar Trussell</text>
</g>
<!-- Crosby Braverman_Jasmine Trussell_sibs&#45;&#45;Jabbar Trussell -->
<g id="edge25" class="edge">
<title>Crosby Braverman_Jasmine Trussell_sibs&#45;&#45;Jabbar Trussell</title>
<path fill="none" stroke="black" d="M861.47,-71.87C861.47,-67.65 861.47,-50.02 861.47,-36.26"/>
</g>
</g>
</svg>
