<?xml version="1.0" encoding="UTF-8" standalone="no"?>
<!DOCTYPE svg PUBLIC "-//W3C//DTD SVG 1.1//EN"
 "http://www.w3.org/Graphics/SVG/1.1/DTD/svg11.dtd">
<!-- Generated by graphviz version 2.43.0 (0)
 -->
<!-- Title: %3 Pages: 1 -->
<svg width="682pt" height="267pt"
 viewBox="0.00 0.00 682.07 267.20" xmlns="http://www.w3.org/2000/svg" xmlns:xlink="http://www.w3.org/1999/xlink">
<g id="graph0" class="graph" transform="scale(1 1) rotate(0) translate(4 263.2)">
<title>%3</title>
<polygon fill="white" stroke="transparent" points="-4,4 -4,-263.2 678.07,-263.2 678.07,4 -4,4"/>
<!-- Zeek -->
<g id="node1" class="node">
<title>Zeek</title>
<polygon fill="none" stroke="black" points="264,-259.2 210,-259.2 210,-223.2 264,-223.2 264,-259.2"/>
<text text-anchor="middle" x="237" y="-237" font-family="Helvetica,sans-Serif" font-size="14.00">Zeek</text>
</g>
<!-- Zeek_Camille -->
<g id="node2" class="node">
<title>Zeek_Camille</title>
<ellipse fill="black" stroke="black" cx="284" cy="-241.2" rx="1.8" ry="1.8"/>
</g>
<!-- Zeek&#45;&#45;Zeek_Camille -->
<g id="edge1" class="edge">
<title>Zeek&#45;&#45;Zeek_Camille</title>
<path fill="none" stroke="black" d="M264.17,-241.2C270.16,-241.2 276.15,-241.2 282.14,-241.2"/>
</g>
<!-- Camille -->
<g id="node3" class="node">
<title>Camille</title>
<polygon fill="none" stroke="black" points="366.18,-259.2 303.82,-259.2 303.82,-223.2 366.18,-223.2 366.18,-259.2"/>
<text text-anchor="middle" x="335" y="-237" font-family="Helvetica,sans-Serif" font-size="14.00">Camille</text>
</g>
<!-- Zeek_Camille&#45;&#45;Camille -->
<g id="edge2" class="edge">
<title>Zeek_Camille&#45;&#45;Camille</title>
<path fill="none" stroke="black" d="M285.99,-241.2C291.86,-241.2 297.73,-241.2 303.6,-241.2"/>
</g>
<!-- Zeek_Camille_sibs -->
<g id="node4" class="node">
<title>Zeek_Camille_sibs</title>
<ellipse fill="black" stroke="black" cx="284" cy="-185.4" rx="1.8" ry="1.8"/>
</g>
<!-- Zeek_Camille&#45;&#45;Zeek_Camille_sibs -->
<g id="edge3" class="edge">
<title>Zeek_Camille&#45;&#45;Zeek_Camille_sibs</title>
<path fill="none" stroke="black" d="M284,-239.27C284,-232.79 284,-194.63 284,-187.54"/>
</g>
<!-- Adam -->
<g id="node5" class="node">
<title>Adam</title>
<polygon fill="none" stroke="black" points="54,-147.6 0,-147.6 0,-111.6 54,-111.6 54,-147.6"/>
<text text-anchor="middle" x="27" y="-125.4" font-family="Helvetica,sans-Serif" font-size="14.00">Adam</text>
</g>
<!-- Zeek_Camille_sibs&#45;&#45;Adam -->
<g id="edge4" class="edge">
<title>Zeek_Camille_sibs&#45;&#45;Adam</title>
<path fill="none" stroke="black" d="M282.56,-184.31C268.38,-183.43 152.1,-175.46 63,-147.6 60.1,-146.69 57.13,-145.59 54.2,-144.4"/>
</g>
<!-- Sarah -->
<g id="node6" class="node">
<title>Sarah</title>
<polygon fill="none" stroke="black" points="228,-147.6 174,-147.6 174,-111.6 228,-111.6 228,-147.6"/>
<text text-anchor="middle" x="201" y="-125.4" font-family="Helvetica,sans-Serif" font-size="14.00">Sarah</text>
</g>
<!-- Zeek_Camille_sibs&#45;&#45;Sarah -->
<g id="edge5" class="edge">
<title>Zeek_Camille_sibs&#45;&#45;Sarah</title>
<path fill="none" stroke="black" d="M283.07,-183.8C277.62,-180.26 249.37,-161.95 227.52,-147.79"/>
</g>
<!-- Julia -->
<g id="node7" class="node">
<title>Julia</title>
<polygon fill="none" stroke="black" points="394,-147.6 340,-147.6 340,-111.6 394,-111.6 394,-147.6"/>
<text text-anchor="middle" x="367" y="-125.4" font-family="Helvetica,sans-Serif" font-size="14.00">Julia</text>
</g>
<!-- Zeek_Camille_sibs&#45;&#45;Julia -->
<g id="edge6" class="edge">
<title>Zeek_Camille_sibs&#45;&#45;Julia</title>
<path fill="none" stroke="black" d="M284.93,-183.8C290.38,-180.26 318.63,-161.95 340.48,-147.79"/>
</g>
<!-- Crosby -->
<g id="node8" class="node">
<title>Crosby</title>
<polygon fill="none" stroke="black" points="566.35,-147.6 505.65,-147.6 505.65,-111.6 566.35,-111.6 566.35,-147.6"/>
<text text-anchor="middle" x="536" y="-125.4" font-family="Helvetica,sans-Serif" font-size="14.00">Crosby</text>
</g>
<!-- Zeek_Camille_sibs&#45;&#45;Crosby -->
<g id="edge7" class="edge">
<title>Zeek_Camille_sibs&#45;&#45;Crosby</title>
<path fill="none" stroke="black" d="M285.74,-184.26C300.87,-183.01 411.44,-173.23 497,-147.6 499.83,-146.75 502.73,-145.75 505.6,-144.67"/>
</g>
<!-- Adam_Kristina -->
<g id="node9" class="node">
<title>Adam_Kristina</title>
<ellipse fill="black" stroke="black" cx="74" cy="-129.6" rx="1.8" ry="1.8"/>
</g>
<!-- Adam&#45;&#45;Adam_Kristina -->
<g id="edge8" class="edge">
<title>Adam&#45;&#45;Adam_Kristina</title>
<path fill="none" stroke="black" d="M54.17,-129.6C60.16,-129.6 66.15,-129.6 72.14,-129.6"/>
</g>
<!-- Sarah_Seth -->
<g id="node14" class="node">
<title>Sarah_Seth</title>
<ellipse fill="red" stroke="red" cx="248" cy="-129.6" rx="1.8" ry="1.8"/>
</g>
<!-- Sarah&#45;&#45;Sarah_Seth -->
<g id="edge13" class="edge">
<title>Sarah&#45;&#45;Sarah_Seth</title>
<path fill="none" stroke="red" d="M228.17,-129.6C234.16,-129.6 240.15,-129.6 246.14,-129.6"/>
</g>
<!-- Julia_Joel -->
<g id="node19" class="node">
<title>Julia_Joel</title>
<ellipse fill="black" stroke="black" cx="414" cy="-129.6" rx="1.8" ry="1.8"/>
</g>
<!-- Julia&#45;&#45;Julia_Joel -->
<g id="edge18" class="edge">
<title>Julia&#45;&#45;Julia_Joel</title>
<path fill="none" stroke="black" d="M394.17,-129.6C400.16,-129.6 406.15,-129.6 412.14,-129.6"/>
</g>
<!-- Crosby_Jasmine -->
<g id="node23" class="node">
<title>Crosby_Jasmine</title>
<ellipse fill="cyan" stroke="cyan" cx="586" cy="-129.6" rx="1.8" ry="1.8"/>
</g>
<!-- Crosby&#45;&#45;Crosby_Jasmine -->
<g id="edge22" class="edge">
<title>Crosby&#45;&#45;Crosby_Jasmine</title>
<path fill="none" stroke="cyan" d="M566.47,-129.6C572.37,-129.6 578.27,-129.6 584.17,-129.6"/>
</g>
<!-- Kristina -->
<g id="node10" class="node">
<title>Kristina</title>
<polygon fill="none" stroke="black" points="156.18,-147.6 93.82,-147.6 93.82,-111.6 156.18,-111.6 156.18,-147.6"/>
<text text-anchor="middle" x="125" y="-125.4" font-family="Helvetica,sans-Serif" font-size="14.00">Kristina</text>
</g>
<!-- Adam_Kristina&#45;&#45;Kristina -->
<g id="edge9" class="edge">
<title>Adam_Kristina&#45;&#45;Kristina</title>
<path fill="none" stroke="black" d="M75.99,-129.6C81.86,-129.6 87.73,-129.6 93.6,-129.6"/>
</g>
<!-- Adam_Kristina_sibs -->
<g id="node11" class="node">
<title>Adam_Kristina_sibs</title>
<ellipse fill="black" stroke="black" cx="74" cy="-73.8" rx="1.8" ry="1.8"/>
</g>
<!-- Adam_Kristina&#45;&#45;Adam_Kristina_sibs -->
<g id="edge10" class="edge">
<title>Adam_Kristina&#45;&#45;Adam_Kristina_sibs</title>
<path fill="none" stroke="black" d="M74,-127.67C74,-121.19 74,-83.03 74,-75.94"/>
</g>
<!-- Haddie -->
<g id="node12" class="node">
<title>Haddie</title>
<polygon fill="none" stroke="black" points="67.37,-36 6.63,-36 6.63,0 67.37,0 67.37,-36"/>
<text text-anchor="middle" x="37" y="-13.8" font-family="Helvetica,sans-Serif" font-size="14.00">Haddie</text>
</g>
<!-- Adam_Kristina_sibs&#45;&#45;Haddie -->
<g id="edge11" class="edge">
<title>Adam_Kristina_sibs&#45;&#45;Haddie</title>
<path fill="none" stroke="black" d="M73.36,-71.87C70.46,-67.65 58.33,-50.02 48.87,-36.26"/>
</g>
<!-- Max -->
<g id="node13" class="node">
<title>Max</title>
<polygon fill="none" stroke="black" points="139,-36 85,-36 85,0 139,0 139,-36"/>
<text text-anchor="middle" x="112" y="-13.8" font-family="Helvetica,sans-Serif" font-size="14.00">Max</text>
</g>
<!-- Adam_Kristina_sibs&#45;&#45;Max -->
<g id="edge12" class="edge">
<title>Adam_Kristina_sibs&#45;&#45;Max</title>
<path fill="none" stroke="black" d="M74.66,-71.87C77.64,-67.65 90.09,-50.02 99.81,-36.26"/>
</g>
<!-- Seth -->
<g id="node15" class="node">
<title>Seth</title>
<polygon fill="none" stroke="black" points="322,-147.6 268,-147.6 268,-111.6 322,-111.6 322,-147.6"/>
<text text-anchor="middle" x="295" y="-125.4" font-family="Helvetica,sans-Serif" font-size="14.00">Seth</text>
</g>
<!-- Sarah_Seth&#45;&#45;Seth -->
<g id="edge14" class="edge">
<title>Sarah_Seth&#45;&#45;Seth</title>
<path fill="none" stroke="red" d="M249.84,-129.6C255.83,-129.6 261.83,-129.6 267.83,-129.6"/>
</g>
<!-- Sarah_Seth_sibs -->
<g id="node16" class="node">
<title>Sarah_Seth_sibs</title>
<ellipse fill="black" stroke="black" cx="248" cy="-73.8" rx="1.8" ry="1.8"/>
</g>
<!-- Sarah_Seth&#45;&#45;Sarah_Seth_sibs -->
<g id="edge15" class="edge">
<title>Sarah_Seth&#45;&#45;Sarah_Seth_sibs</title>
<path fill="none" stroke="black" d="M248,-127.67C248,-121.19 248,-83.03 248,-75.94"/>
</g>
<!-- Amber -->
<g id="node17" class="node">
<title>Amber</title>
<polygon fill="none" stroke="black" points="245.73,-36 188.27,-36 188.27,0 245.73,0 245.73,-36"/>
<text text-anchor="middle" x="217" y="-13.8" font-family="Helvetica,sans-Serif" font-size="14.00">Amber</text>
</g>
<!-- Sarah_Seth_sibs&#45;&#45;Amber -->
<g id="edge16" class="edge">
<title>Sarah_Seth_sibs&#45;&#45;Amber</title>
<path fill="none" stroke="black" d="M247.46,-71.87C245.03,-67.65 234.87,-50.02 226.94,-36.26"/>
</g>
<!-- Drew -->
<g id="node18" class="node">
<title>Drew</title>
<polygon fill="none" stroke="black" points="318,-36 264,-36 264,0 318,0 318,-36"/>
<text text-anchor="middle" x="291" y="-13.8" font-family="Helvetica,sans-Serif" font-size="14.00">Drew</text>
</g>
<!-- Sarah_Seth_sibs&#45;&#45;Drew -->
<g id="edge17" class="edge">
<title>Sarah_Seth_sibs&#45;&#45;Drew</title>
<path fill="none" stroke="black" d="M248.75,-71.87C252.11,-67.65 266.21,-50.02 277.21,-36.26"/>
</g>
<!-- Joel -->
<g id="node20" class="node">
<title>Joel</title>
<polygon fill="none" stroke="black" points="488,-147.6 434,-147.6 434,-111.6 488,-111.6 488,-147.6"/>
<text text-anchor="middle" x="461" y="-125.4" font-family="Helvetica,sans-Serif" font-size="14.00">Joel</text>
</g>
<!-- Julia_Joel&#45;&#45;Joel -->
<g id="edge19" class="edge">
<title>Julia_Joel&#45;&#45;Joel</title>
<path fill="none" stroke="black" d="M415.84,-129.6C421.83,-129.6 427.83,-129.6 433.83,-129.6"/>
</g>
<!-- Julia_Joel_sibs -->
<g id="node21" class="node">
<title>Julia_Joel_sibs</title>
<ellipse fill="black" stroke="black" cx="414" cy="-73.8" rx="1.8" ry="1.8"/>
</g>
<!-- Julia_Joel&#45;&#45;Julia_Joel_sibs -->
<g id="edge20" class="edge">
<title>Julia_Joel&#45;&#45;Julia_Joel_sibs</title>
<path fill="none" stroke="black" d="M414,-127.67C414,-121.19 414,-83.03 414,-75.94"/>
</g>
<!-- Sydney -->
<g id="node22" class="node">
<title>Sydney</title>
<polygon fill="none" stroke="black" points="445.2,-36 382.8,-36 382.8,0 445.2,0 445.2,-36"/>
<text text-anchor="middle" x="414" y="-13.8" font-family="Helvetica,sans-Serif" font-size="14.00">Sydney</text>
</g>
<!-- Julia_Joel_sibs&#45;&#45;Sydney -->
<g id="edge21" class="edge">
<title>Julia_Joel_sibs&#45;&#45;Sydney</title>
<path fill="none" stroke="black" d="M414,-71.87C414,-67.65 414,-50.02 414,-36.26"/>
</g>
<!-- Jasmine -->
<g id="node24" class="node">
<title>Jasmine</title>
<polygon fill="none" stroke="black" points="674.13,-147.6 605.87,-147.6 605.87,-111.6 674.13,-111.6 674.13,-147.6"/>
<text text-anchor="middle" x="640" y="-125.4" font-family="Helvetica,sans-Serif" font-size="14.00">Jasmine</text>
</g>
<!-- Crosby_Jasmine&#45;&#45;Jasmine -->
<g id="edge23" class="edge">
<title>Crosby_Jasmine&#45;&#45;Jasmine</title>
<path fill="none" stroke="cyan" d="M588.11,-129.6C593.92,-129.6 599.73,-129.6 605.54,-129.6"/>
</g>
<!-- Crosby_Jasmine_sibs -->
<g id="node25" class="node">
<title>Crosby_Jasmine_sibs</title>
<ellipse fill="black" stroke="black" cx="586" cy="-73.8" rx="1.8" ry="1.8"/>
</g>
<!-- Crosby_Jasmine&#45;&#45;Crosby_Jasmine_sibs -->
<g id="edge24" class="edge">
<title>Crosby_Jasmine&#45;&#45;Crosby_Jasmine_sibs</title>
<path fill="none" stroke="black" d="M586,-127.67C586,-121.19 586,-83.03 586,-75.94"/>
</g>
<!-- Jabbar -->
<g id="node26" class="node">
<title>Jabbar</title>
<polygon fill="none" stroke="black" points="615.31,-36 556.69,-36 556.69,0 615.31,0 615.31,-36"/>
<text text-anchor="middle" x="586" y="-13.8" font-family="Helvetica,sans-Serif" font-size="14.00">Jabbar</text>
</g>
<!-- Crosby_Jasmine_sibs&#45;&#45;Jabbar -->
<g id="edge25" class="edge">
<title>Crosby_Jasmine_sibs&#45;&#45;Jabbar</title>
<path fill="none" stroke="black" d="M586,-71.87C586,-67.65 586,-50.02 586,-36.26"/>
</g>
</g>
</svg>
